<?xml version="1.0" encoding="UTF-8" standalone="no"?><!DOCTYPE svg PUBLIC "-//W3C//DTD SVG 1.1//EN" "http://www.w3.org/Graphics/SVG/1.1/DTD/svg11.dtd"><svg width="100%" height="100%" viewBox="0 0 361 135" version="1.1" xmlns="http://www.w3.org/2000/svg" xmlns:xlink="http://www.w3.org/1999/xlink" xml:space="preserve" style="fill-rule:evenodd;clip-rule:evenodd;stroke-miterlimit:10;"><g id="Layer-1"><g><clipPath id="_clip1"><path d="M160.65,38.084l0,67.608l199.511,0l-16.322,-33.804l16.322,-33.804l-199.511,0Z"/></clipPath><g clip-path="url(#_clip1)"><path d="M98.823,31.886l80.004,80.004" style="fill:none;stroke:#231f20;stroke-width:0.75px;"/><path d="M100.977,31.886l80.004,80.004" style="fill:none;stroke:#231f20;stroke-width:0.75px;"/><path d="M103.131,31.886l80.004,80.004" style="fill:none;stroke:#231f20;stroke-width:0.75px;"/><path d="M105.285,31.886l80.004,80.004" style="fill:none;stroke:#231f20;stroke-width:0.75px;"/><path d="M107.439,31.886l80.004,80.004" style="fill:none;stroke:#231f20;stroke-width:0.75px;"/><path d="M109.594,31.886l80.004,80.004" style="fill:none;stroke:#231f20;stroke-width:0.75px;"/><path d="M111.748,31.886l80.004,80.004" style="fill:none;stroke:#231f20;stroke-width:0.75px;"/><path d="M113.902,31.886l80.004,80.004" style="fill:none;stroke:#231f20;stroke-width:0.75px;"/><path d="M116.056,31.886l80.004,80.004" style="fill:none;stroke:#231f20;stroke-width:0.75px;"/><path d="M118.21,31.886l80.004,80.004" style="fill:none;stroke:#231f20;stroke-width:0.75px;"/><path d="M120.364,31.886l80.004,80.004" style="fill:none;stroke:#231f20;stroke-width:0.75px;"/><path d="M122.518,31.886l80.004,80.004" style="fill:none;stroke:#231f20;stroke-width:0.75px;"/><path d="M124.673,31.886l80.004,80.004" style="fill:none;stroke:#231f20;stroke-width:0.75px;"/><path d="M126.827,31.886l80.004,80.004" style="fill:none;stroke:#231f20;stroke-width:0.75px;"/><path d="M128.981,31.886l80.004,80.004" style="fill:none;stroke:#231f20;stroke-width:0.75px;"/><path d="M131.135,31.886l80.004,80.004" style="fill:none;stroke:#231f20;stroke-width:0.75px;"/><path d="M133.289,31.886l80.004,80.004" style="fill:none;stroke:#231f20;stroke-width:0.75px;"/><path d="M135.443,31.886l80.004,80.004" style="fill:none;stroke:#231f20;stroke-width:0.75px;"/><path d="M137.597,31.886l80.004,80.004" style="fill:none;stroke:#231f20;stroke-width:0.75px;"/><path d="M139.752,31.886l80.004,80.004" style="fill:none;stroke:#231f20;stroke-width:0.75px;"/><path d="M141.906,31.886l80.004,80.004" style="fill:none;stroke:#231f20;stroke-width:0.75px;"/><path d="M144.06,31.886l80.004,80.004" style="fill:none;stroke:#231f20;stroke-width:0.75px;"/><path d="M146.214,31.886l80.004,80.004" style="fill:none;stroke:#231f20;stroke-width:0.75px;"/><path d="M148.368,31.886l80.004,80.004" style="fill:none;stroke:#231f20;stroke-width:0.75px;"/><path d="M150.522,31.886l80.004,80.004" style="fill:none;stroke:#231f20;stroke-width:0.75px;"/><path d="M152.676,31.886l80.004,80.004" style="fill:none;stroke:#231f20;stroke-width:0.75px;"/><path d="M154.831,31.886l80.004,80.004" style="fill:none;stroke:#231f20;stroke-width:0.75px;"/><path d="M156.985,31.886l80.004,80.004" style="fill:none;stroke:#231f20;stroke-width:0.75px;"/><path d="M159.139,31.886l80.004,80.004" style="fill:none;stroke:#231f20;stroke-width:0.75px;"/><path d="M161.293,31.886l80.004,80.004" style="fill:none;stroke:#231f20;stroke-width:0.75px;"/><path d="M163.447,31.886l80.004,80.004" style="fill:none;stroke:#231f20;stroke-width:0.75px;"/><path d="M165.601,31.886l80.004,80.004" style="fill:none;stroke:#231f20;stroke-width:0.75px;"/><path d="M167.755,31.886l80.004,80.004" style="fill:none;stroke:#231f20;stroke-width:0.75px;"/><path d="M169.91,31.886l80.004,80.004" style="fill:none;stroke:#231f20;stroke-width:0.75px;"/><path d="M172.064,31.886l80.004,80.004" style="fill:none;stroke:#231f20;stroke-width:0.75px;"/><path d="M174.218,31.886l80.004,80.004" style="fill:none;stroke:#231f20;stroke-width:0.75px;"/><path d="M176.372,31.886l80.004,80.004" style="fill:none;stroke:#231f20;stroke-width:0.75px;"/><path d="M178.526,31.886l80.004,80.004" style="fill:none;stroke:#231f20;stroke-width:0.75px;"/><path d="M180.68,31.886l80.004,80.004" style="fill:none;stroke:#231f20;stroke-width:0.75px;"/><path d="M182.834,31.886l80.004,80.004" style="fill:none;stroke:#231f20;stroke-width:0.75px;"/><path d="M184.989,31.886l80.004,80.004" style="fill:none;stroke:#231f20;stroke-width:0.75px;"/><path d="M187.143,31.886l80.004,80.004" style="fill:none;stroke:#231f20;stroke-width:0.75px;"/><path d="M189.297,31.886l80.004,80.004" style="fill:none;stroke:#231f20;stroke-width:0.75px;"/><path d="M191.451,31.886l80.004,80.004" style="fill:none;stroke:#231f20;stroke-width:0.75px;"/><path d="M193.605,31.886l80.004,80.004" style="fill:none;stroke:#231f20;stroke-width:0.75px;"/><path d="M195.759,31.886l80.004,80.004" style="fill:none;stroke:#231f20;stroke-width:0.75px;"/><path d="M197.913,31.886l80.004,80.004" style="fill:none;stroke:#231f20;stroke-width:0.75px;"/><path d="M200.068,31.886l80.004,80.004" style="fill:none;stroke:#231f20;stroke-width:0.75px;"/><path d="M202.222,31.886l80.004,80.004" style="fill:none;stroke:#231f20;stroke-width:0.75px;"/><path d="M204.376,31.886l80.004,80.004" style="fill:none;stroke:#231f20;stroke-width:0.75px;"/><path d="M206.53,31.886l80.004,80.004" style="fill:none;stroke:#231f20;stroke-width:0.75px;"/><path d="M208.684,31.886l80.004,80.004" style="fill:none;stroke:#231f20;stroke-width:0.75px;"/><path d="M210.838,31.886l80.004,80.004" style="fill:none;stroke:#231f20;stroke-width:0.75px;"/><path d="M212.992,31.886l80.004,80.004" style="fill:none;stroke:#231f20;stroke-width:0.75px;"/><path d="M215.147,31.886l80.004,80.004" style="fill:none;stroke:#231f20;stroke-width:0.75px;"/><path d="M217.301,31.886l80.004,80.004" style="fill:none;stroke:#231f20;stroke-width:0.75px;"/><path d="M219.455,31.886l80.004,80.004" style="fill:none;stroke:#231f20;stroke-width:0.75px;"/><path d="M221.609,31.886l80.004,80.004" style="fill:none;stroke:#231f20;stroke-width:0.75px;"/><path d="M223.763,31.886l80.004,80.004" style="fill:none;stroke:#231f20;stroke-width:0.75px;"/><path d="M225.917,31.886l80.004,80.004" style="fill:none;stroke:#231f20;stroke-width:0.75px;"/><path d="M228.071,31.886l80.004,80.004" style="fill:none;stroke:#231f20;stroke-width:0.75px;"/><path d="M230.226,31.886l80.004,80.004" style="fill:none;stroke:#231f20;stroke-width:0.75px;"/><path d="M232.38,31.886l80.004,80.004" style="fill:none;stroke:#231f20;stroke-width:0.75px;"/><path d="M234.534,31.886l80.004,80.004" style="fill:none;stroke:#231f20;stroke-width:0.75px;"/><path d="M236.688,31.886l80.004,80.004" style="fill:none;stroke:#231f20;stroke-width:0.75px;"/><path d="M238.842,31.886l80.004,80.004" style="fill:none;stroke:#231f20;stroke-width:0.75px;"/><path d="M240.996,31.886l80.004,80.004" style="fill:none;stroke:#231f20;stroke-width:0.75px;"/><path d="M243.15,31.886l80.004,80.004" style="fill:none;stroke:#231f20;stroke-width:0.75px;"/><path d="M245.305,31.886l80.004,80.004" style="fill:none;stroke:#231f20;stroke-width:0.75px;"/><path d="M247.459,31.886l80.004,80.004" style="fill:none;stroke:#231f20;stroke-width:0.75px;"/><path d="M249.613,31.886l80.004,80.004" style="fill:none;stroke:#231f20;stroke-width:0.75px;"/><path d="M251.767,31.886l80.004,80.004" style="fill:none;stroke:#231f20;stroke-width:0.75px;"/><path d="M253.921,31.886l80.004,80.004" style="fill:none;stroke:#231f20;stroke-width:0.75px;"/><path d="M256.075,31.886l80.004,80.004" style="fill:none;stroke:#231f20;stroke-width:0.75px;"/><path d="M258.229,31.886l80.004,80.004" style="fill:none;stroke:#231f20;stroke-width:0.75px;"/><path d="M260.384,31.886l80.004,80.004" style="fill:none;stroke:#231f20;stroke-width:0.75px;"/><path d="M262.538,31.886l80.004,80.004" style="fill:none;stroke:#231f20;stroke-width:0.75px;"/><path d="M264.692,31.886l80.004,80.004" style="fill:none;stroke:#231f20;stroke-width:0.75px;"/><path d="M266.846,31.886l80.004,80.004" style="fill:none;stroke:#231f20;stroke-width:0.75px;"/><path d="M269,31.886l80.004,80.004" style="fill:none;stroke:#231f20;stroke-width:0.75px;"/><path d="M271.154,31.886l80.004,80.004" style="fill:none;stroke:#231f20;stroke-width:0.75px;"/><path d="M273.308,31.886l80.004,80.004" style="fill:none;stroke:#231f20;stroke-width:0.75px;"/><path d="M275.462,31.886l80.004,80.004" style="fill:none;stroke:#231f20;stroke-width:0.75px;"/><path d="M277.617,31.886l80.004,80.004" style="fill:none;stroke:#231f20;stroke-width:0.75px;"/><path d="M279.771,31.886l80.004,80.004" style="fill:none;stroke:#231f20;stroke-width:0.75px;"/><path d="M281.925,31.886l80.004,80.004" style="fill:none;stroke:#231f20;stroke-width:0.75px;"/><path d="M284.079,31.886l80.004,80.004" style="fill:none;stroke:#231f20;stroke-width:0.75px;"/><path d="M286.233,31.886l80.004,80.004" style="fill:none;stroke:#231f20;stroke-width:0.75px;"/><path d="M288.387,31.886l80.004,80.004" style="fill:none;stroke:#231f20;stroke-width:0.75px;"/><path d="M290.541,31.886l80.004,80.004" style="fill:none;stroke:#231f20;stroke-width:0.75px;"/><path d="M292.696,31.886l80.004,80.004" style="fill:none;stroke:#231f20;stroke-width:0.75px;"/><path d="M294.85,31.886l80.004,80.004" style="fill:none;stroke:#231f20;stroke-width:0.75px;"/><path d="M297.004,31.886l80.004,80.004" style="fill:none;stroke:#231f20;stroke-width:0.75px;"/><path d="M299.158,31.886l80.004,80.004" style="fill:none;stroke:#231f20;stroke-width:0.75px;"/><path d="M301.312,31.886l80.004,80.004" style="fill:none;stroke:#231f20;stroke-width:0.75px;"/><path d="M303.466,31.886l80.004,80.004" style="fill:none;stroke:#231f20;stroke-width:0.75px;"/><path d="M305.621,31.886l80.004,80.004" style="fill:none;stroke:#231f20;stroke-width:0.75px;"/><path d="M307.775,31.886l80.004,80.004" style="fill:none;stroke:#231f20;stroke-width:0.75px;"/><path d="M309.929,31.886l80.004,80.004" style="fill:none;stroke:#231f20;stroke-width:0.75px;"/><path d="M312.083,31.886l80.004,80.004" style="fill:none;stroke:#231f20;stroke-width:0.75px;"/><path d="M314.237,31.886l80.004,80.004" style="fill:none;stroke:#231f20;stroke-width:0.75px;"/><path d="M316.391,31.886l80.004,80.004" style="fill:none;stroke:#231f20;stroke-width:0.75px;"/><path d="M318.545,31.886l80.004,80.004" style="fill:none;stroke:#231f20;stroke-width:0.75px;"/><path d="M320.699,31.886l80.004,80.004" style="fill:none;stroke:#231f20;stroke-width:0.75px;"/><path d="M322.854,31.886l80.004,80.004" style="fill:none;stroke:#231f20;stroke-width:0.75px;"/><path d="M325.008,31.886l80.004,80.004" style="fill:none;stroke:#231f20;stroke-width:0.75px;"/><path d="M327.162,31.886l80.004,80.004" style="fill:none;stroke:#231f20;stroke-width:0.75px;"/><path d="M329.316,31.886l80.004,80.004" style="fill:none;stroke:#231f20;stroke-width:0.75px;"/><path d="M331.47,31.886l80.004,80.004" style="fill:none;stroke:#231f20;stroke-width:0.75px;"/><path d="M333.624,31.886l80.004,80.004" style="fill:none;stroke:#231f20;stroke-width:0.75px;"/><path d="M335.779,31.886l80.004,80.004" style="fill:none;stroke:#231f20;stroke-width:0.75px;"/><path d="M337.933,31.886l80.004,80.004" style="fill:none;stroke:#231f20;stroke-width:0.75px;"/><path d="M340.087,31.886l80.004,80.004" style="fill:none;stroke:#231f20;stroke-width:0.75px;"/><path d="M342.241,31.886l80.004,80.004" style="fill:none;stroke:#231f20;stroke-width:0.75px;"/><path d="M344.395,31.886l80.004,80.004" style="fill:none;stroke:#231f20;stroke-width:0.75px;"/><path d="M346.549,31.886l80.004,80.004" style="fill:none;stroke:#231f20;stroke-width:0.75px;"/><path d="M348.703,31.886l80.004,80.004" style="fill:none;stroke:#231f20;stroke-width:0.75px;"/><path d="M350.857,31.886l80.004,80.004" style="fill:none;stroke:#231f20;stroke-width:0.75px;"/><path d="M353.012,31.886l80.004,80.004" style="fill:none;stroke:#231f20;stroke-width:0.75px;"/><path d="M355.166,31.886l80.004,80.004" style="fill:none;stroke:#231f20;stroke-width:0.75px;"/><path d="M357.32,31.886l80.004,80.004" style="fill:none;stroke:#231f20;stroke-width:0.75px;"/><path d="M359.474,31.886l80.004,80.004" style="fill:none;stroke:#231f20;stroke-width:0.75px;"/></g></g><path d="M350.549,96.081l-190.171,0l0,-67.609l190.171,0l-16.322,33.805l16.322,33.804Z" style="fill:#05c0e4;fill-rule:nonzero;"/><text x="183.786px" y="76.772px" style="font-family:'Gotham-Medium', 'Gotham';font-weight:350;font-size:41.019px;fill:#fff;">B<tspan x="216.702px 243.752px 281.918px " y="76.772px 76.772px 76.772px ">LOG</tspan></text><path d="M64.646,9.145c0,0 -23.241,-7.557 -24.892,37.463c0,0 0.423,32.26 -3.924,39.423c0,0 -3.595,9.696 -15.115,10.284c0,0 -15.077,1.076 -15.92,-12.816c0,0 -1.906,-10.132 5.705,-10.52c0,0 5.727,-0.468 6.025,4.441c0,0 1.518,-7.749 -6.201,-7.355c0,0 -10.751,-0.383 -9.899,13.657c0,0 1.105,18.21 20.968,17.196c0,0 17.555,-0.015 24.583,-15.136c0,0 11.39,-15.82 8.565,-46.165c0,0 -0.653,-20.164 10.105,-30.472" style="fill:#231f20;fill-rule:nonzero;"/><path d="M52.541,39.974c0,0 19.514,-0.03 24.441,-15.884c0,0 6.282,-20.211 -19.221,-20.693c0,0 -29.717,-2.149 -39.328,19.039c0,0 -8.682,18.047 13.721,20.185c0,0 -4.25,5.33 -12.367,3.665c0,0 -14.808,-2.229 -8.763,-23.557c0,0 5.181,-21.594 40.82,-22.331c0,0 37.343,-2.469 35.056,23.879c0,0 -0.895,18.639 -34.52,18.004l0.161,-2.307Z" style="fill:#231f20;fill-rule:nonzero;"/><path d="M109.206,81.054c-5.629,-0.886 -2.072,-18.492 0.25,-27.909c3.932,3.846 6.591,3.893 10.127,4.749c-3.486,26.179 -10.377,23.16 -10.377,23.16m6.345,-41.476c8.302,-0.042 4.177,16.077 4.158,16.241c-4.649,-0.436 -7.767,-2.722 -9.834,-5.348c2.467,-11.628 5.676,-10.893 5.676,-10.893m-29.72,23.58c-2.727,27.903 -10.56,24.708 -10.56,24.708c-6.244,-0.552 -1.076,-23.256 1.233,-32.292c2.185,3.776 6.705,6.319 9.412,5.968c-0.034,0.989 -0.085,1.616 -0.085,1.616m-5.025,-16.829c4.21,0 5.063,8.371 5.129,12.975c-6.31,-0.598 -8.455,-7.396 -8.455,-7.396c0.966,-5.579 3.326,-5.579 3.326,-5.579m60.531,-2.624c-0.175,-7.138 -6.018,-9.489 -6.018,-9.489c-3.205,-1.126 -1.976,2.129 -1.976,2.129c13.679,12.186 -4.202,19.175 -4.202,19.175c-0.27,0.089 -0.524,0.154 -0.788,0.234c0.577,-7.727 -0.749,-17.363 -11.193,-18.508c0,0 -7.009,-1.848 -11.182,5.3c0,0 -3.079,3.755 -5.373,9.977c-2.746,2.206 -4.661,3.493 -4.661,3.493c-0.849,0.565 -1.657,1.038 -2.436,1.447c-0.489,-3.022 -1.745,-6.375 -4.521,-9.495c0,0 -5.276,-6.082 -13.365,-2.104c0,0 -11.465,-0.659 -15.909,20.795c0,-0.001 -3.972,21.21 13.063,23.615c0,0 20.723,3.672 20.96,-30.895c2.077,-1.053 4.076,-2.356 5.862,-3.686c-1.614,5.78 -2.279,13.099 0.233,21.271c0,0 1.635,6.02 9.882,7.133c0,0 14.136,1.262 18.478,-26.626c13.215,-2.597 13.146,-13.766 13.146,-13.766" style="fill:#231f20;fill-rule:nonzero;"/><path d="M41.577,113.228l0.139,0.293c0.256,-0.029 0.535,-0.006 0.763,-0.095c1.745,-0.681 3.445,-1.469 5.225,-2.058c2.793,-0.926 5.62,-1.774 8.464,-2.56c4.591,-1.27 9.175,-2.579 13.822,-3.653c4.263,-0.985 8.585,-1.793 12.919,-2.476c5.468,-0.861 10.97,-1.541 16.465,-2.253c3.163,-0.41 6.349,-0.667 9.505,-1.11c1.682,-0.236 3.321,-0.723 4.98,-1.096c-0.283,-0.363 -0.515,-0.418 -0.736,-0.395c-2.369,0.248 -4.73,0.613 -7.107,0.743c-4.046,0.221 -8.107,0.221 -12.152,0.459c-3.032,0.179 -6.055,0.535 -9.068,0.907c-2.657,0.328 -5.318,0.691 -7.936,1.212c-3.812,0.759 -7.59,1.666 -11.377,2.527c-2.552,0.579 -5.189,0.968 -7.621,1.836c-3.837,1.369 -7.581,2.983 -11.27,4.666c-1.783,0.814 -3.35,2.023 -5.015,3.053m101.566,-30.764c-1.517,1.643 -2.908,3.401 -4.583,4.891c-1.646,1.463 -3.505,2.756 -5.406,3.94c-2.56,1.592 -5.15,3.191 -7.91,4.451c-3.022,1.379 -6.215,2.471 -9.406,3.499c-1.755,0.565 -3.652,0.777 -5.498,1.083c-4.311,0.715 -8.626,1.407 -12.946,2.077c-2.774,0.431 -5.567,0.759 -8.335,1.218c-4.442,0.737 -8.868,1.559 -13.307,2.315c-1.445,0.246 -2.925,0.328 -4.359,0.61c-3.211,0.633 -6.421,1.281 -9.596,2.046c-2.288,0.552 -4.532,1.264 -6.771,1.973c-2.866,0.909 -5.775,1.745 -8.538,2.873c-2.703,1.103 -5.311,2.437 -7.843,3.848c-2.798,1.559 -5.549,3.218 -8.154,5.035c-1.518,1.058 -2.749,2.478 -4.041,3.791c-1.504,1.528 -2.948,3.108 -4.39,4.687c-0.55,0.603 -1.089,1.231 -1.512,1.912c-0.491,0.789 -0.918,1.647 -2.095,0.95c-1.337,-0.791 -0.201,-1.509 0.27,-2.108c1.245,-1.584 2.622,-3.08 3.896,-4.646c2.006,-2.468 3.855,-5.051 5.988,-7.42c1.904,-2.115 4.003,-4.107 6.203,-5.966c1.771,-1.497 3.709,-2.891 5.776,-4.018c3.125,-1.703 6.327,-3.352 9.676,-4.628c4.926,-1.877 9.959,-3.552 15.046,-5.027c2.909,-0.843 6.008,-1.15 9.033,-1.64c2.766,-0.449 5.535,-0.909 8.324,-1.2c3.823,-0.399 7.666,-0.65 11.501,-0.952c2.508,-0.198 5.016,-0.391 7.526,-0.557c1.709,-0.112 3.424,-0.159 5.134,-0.26c4.037,-0.238 8.125,-0.204 12.093,-0.819c3.91,-0.605 7.753,-1.466 11.3,-3.533c3.454,-2.013 6.215,-4.659 9.298,-7.001c0.767,-0.583 1.062,-1.664 1.691,-2.434c0.343,-0.419 0.933,-0.667 1.412,-0.993c0.146,0.558 0.291,1.116 0.523,2.003" style="fill:#231f20;fill-rule:nonzero;"/></g></svg>